<!-- Generated by IcoMoon.io -->
<svg version="1.1" xmlns="http://www.w3.org/2000/svg" width="24" height="24" viewBox="0 0 24 24">
<title>bar-graph-2</title>
<path d="M12 1q1.242 0 2.121 0.879t0.879 2.121v16q0 1.242-0.879 2.121t-2.121 0.879-2.121-0.879-0.879-2.121v-16q0-1.242 0.879-2.121t2.121-0.879zM4 13q1.242 0 2.121 0.879t0.879 2.121v4q0 1.242-0.879 2.121t-2.121 0.879-2.121-0.879-0.879-2.121v-4q0-1.242 0.879-2.121t2.121-0.879zM4 15q-0.414 0-0.707 0.293t-0.293 0.707v4q0 0.414 0.293 0.707t0.707 0.293 0.707-0.293 0.293-0.707v-4q0-0.414-0.293-0.707t-0.707-0.293zM12 3q-0.414 0-0.707 0.293t-0.293 0.707v16q0 0.414 0.293 0.707t0.707 0.293 0.707-0.293 0.293-0.707v-16q0-0.414-0.293-0.707t-0.707-0.293zM20 7q1.242 0 2.121 0.879t0.879 2.121v10q0 1.242-0.879 2.121t-2.121 0.879-2.121-0.879-0.879-2.121v-10q0-1.242 0.879-2.121t2.121-0.879zM20 9q-0.414 0-0.707 0.293t-0.293 0.707v10q0 0.414 0.293 0.707t0.707 0.293 0.707-0.293 0.293-0.707v-10q0-0.414-0.293-0.707t-0.707-0.293z"></path>
</svg>
